<!-- Generated by IcoMoon.io -->
<svg version="1.1" xmlns="http://www.w3.org/2000/svg" width="16" height="16" viewBox="0 0 16 16">
<title>uniE0C0</title>
<path d="M5.106 10.753q-0.608 0-0.784-0.608l-1.504-5.52-2.192-1.456q-0.288-0.176-0.36-0.504t0.12-0.616q0.176-0.272 0.496-0.336t0.592 0.112l2.304 1.504q0.032 0 0.088-0.008t0.072-0.008h11.008q0.368 0 0.608 0.304 0.24 0.272 0.192 0.656l-0.992 4.944q-0.032 0.24-0.232 0.416t-0.456 0.224l-8.928 0.88zM13.986 4.913h-9.424l1.136 4.16 7.6-0.768zM3.506 11.585q0.56 0 0.944 0.4t0.384 0.96q0 0.592-0.384 0.976t-0.944 0.384q-0.592 0-0.976-0.384t-0.384-0.976q0-0.576 0.392-0.968t0.968-0.392zM12.722 11.585q0.576 0 0.968 0.392t0.392 0.968q0 0.56-0.392 0.96t-0.968 0.4q-0.56 0-0.96-0.4t-0.4-0.96q0-0.576 0.4-0.968t0.96-0.392z"></path>
</svg>
