<!-- Generated by IcoMoon.io -->
<svg version="1.1" xmlns="http://www.w3.org/2000/svg" width="16" height="16" viewBox="0 0 16 16">
<title>E25E</title>
<path d="M8.008 0.568q3.072 0 5.248 2.176t2.176 5.248q0 1.52-0.592 2.896t-1.584 2.368-2.368 1.584-2.88 0.592q-1.52 0-2.896-0.592t-2.368-1.584-1.584-2.368-0.592-2.896q0-1.504 0.592-2.88t1.584-2.368 2.368-1.584 2.896-0.592zM8.408 7.608h2.24q-0.048-0.976-0.336-1.984h-1.904v1.984zM10.648 8.408h-2.24v1.984h1.888q0.288-0.976 0.352-1.984zM8.408 4.824h1.632q-0.576-1.424-1.424-2.544-0.144 0-0.208-0.016v2.56zM9.896 2.584q0.672 1.040 1.088 2.24h1.808q-1.056-1.6-2.896-2.24zM8.408 11.192v2.56q0.064-0.016 0.208-0.016 0.864-1.168 1.392-2.544h-1.6zM10.968 11.192q-0.4 1.12-1.088 2.256 1.84-0.64 2.912-2.256h-1.824zM11.208 10.392h2.032q0.432-0.944 0.496-1.984h-2.208q-0.048 1.040-0.32 1.984zM11.528 7.608h2.208q-0.064-1.040-0.496-1.984h-2.016q0.256 0.88 0.304 1.984zM4.776 5.624h-2q-0.448 0.928-0.512 1.984h2.208q0.048-1.008 0.304-1.984zM3.208 4.824h1.808q0.432-1.184 1.088-2.24-1.84 0.64-2.896 2.24zM4.472 8.408h-2.208q0.064 1.056 0.512 1.984h2.016q-0.272-1.056-0.32-1.984zM5.032 11.192h-1.824q1.072 1.616 2.912 2.256-0.688-1.136-1.088-2.256zM5.992 11.192q0.512 1.328 1.408 2.544 0.128 0 0.208 0.016v-2.56h-1.616zM5.72 10.392h1.888v-1.984h-2.24q0.048 1.008 0.352 1.984zM5.368 7.608h2.24v-1.984h-1.904q-0.288 0.912-0.336 1.984zM5.976 4.824h1.632v-2.56q-0.080 0.016-0.224 0.016-0.896 1.216-1.408 2.544z"></path>
</svg>
